<?xml version="1.0" encoding="iso-8859-1"?>
<!-- Generator: Adobe Illustrator 19.0.0, SVG Export Plug-In . SVG Version: 6.00 Build 0)  -->
<svg version="1.1" id="Capa_1" xmlns="http://www.w3.org/2000/svg" xmlns:xlink="http://www.w3.org/1999/xlink" x="0px" y="0px"
	 viewBox="0 0 512 512" style="enable-background:new 0 0 512 512;" xml:space="preserve">
<path style="fill:#A0E557;" d="M401.738,160l13.697-97.265C416.463,55.432,422.713,50,430.089,50h61.023V10H417.09
	c-19.857,0-36.683,14.622-39.452,34.286L361.343,160H401.738z"/>
<path style="fill:#FFD364;" d="M413.007,160H77.217L54.538,327.126C41.983,419.648,113.915,502,207.285,502h75.655
	c93.37,0,165.301-82.352,152.746-174.874L413.007,160z"/>
<g>
	<circle style="fill:#FC5B5B;" cx="250.83" cy="124.85" r="35.15"/>
	<circle style="fill:#FC5B5B;" cx="300.53" cy="75.15" r="35.15"/>
</g>
<polygon style="fill:#66F1FF;" points="20.888,122.932 90.996,10.022 233.425,35.851 "/>
<path d="M427.601,267.629c-5.472,0.749-9.301,5.792-8.553,11.264l0.028,0.207c0.687,5.012,4.975,8.646,9.896,8.646
	c0.451,0,0.908-0.03,1.368-0.093c5.472-0.749,9.301-5.792,8.553-11.264l-0.028-0.207
	C438.115,270.711,433.072,266.884,427.601,267.629z"/>
<path d="M491.112,0H417.09c-24.692,0-45.91,18.439-49.354,42.892L352.652,150h-64.334c6.016-8.962,8.471-19.617,7.37-29.965
	c1.597,0.169,3.211,0.262,4.84,0.262c12.061,0,23.397-4.696,31.925-13.224s13.224-19.865,13.224-31.925
	c0-8.651-2.429-16.925-6.943-24.062l33.951-33.951c3.905-3.905,3.905-10.237,0-14.143c-3.906-3.905-10.236-3.905-14.143,0
	l-33.951,33.951C317.454,32.429,309.181,30,300.528,30c-12.06,0-23.397,4.696-31.925,13.224S255.38,63.089,255.38,75.148
	c0,1.629,0.093,3.243,0.262,4.841c-13.109-1.395-26.715,2.911-36.742,12.937c-8.527,8.528-13.224,19.866-13.224,31.925
	c0,9.092,2.672,17.772,7.64,25.148h-47.885l-28.859-63.66l100.643-41.236c4.111-1.685,6.619-5.88,6.154-10.299
	s-3.789-8.001-8.161-8.794L92.78,0.182c-4.042-0.734-8.115,1.078-10.279,4.564L12.393,117.657c-2.288,3.684-1.94,8.421,0.859,11.732
	c1.942,2.296,4.757,3.543,7.639,3.543c1.272,0,2.559-0.243,3.788-0.747l93.375-38.258L143.474,150H77.217
	c-5.003,0-9.236,3.698-9.909,8.655L44.629,325.781c-6.372,46.961,7.854,94.364,39.029,130.057
	C114.834,491.529,159.894,512,207.284,512h75.655c47.391,0,92.45-20.471,123.626-56.162c31.176-35.692,45.401-83.096,39.029-130.057
	l-2.145-15.806c-0.742-5.473-5.78-9.302-11.254-8.564c-5.473,0.742-9.307,5.781-8.564,11.254l2.145,15.806
	c5.596,41.239-6.896,82.867-34.274,114.21C364.125,474.023,324.556,492,282.94,492h-75.655c-41.616,0-81.186-17.977-108.562-49.319
	c-27.378-31.343-39.87-72.971-34.274-114.21L85.951,170h315.786h2.535l10.118,74.569c0.742,5.474,5.787,9.313,11.254,8.564
	c5.473-0.743,9.307-5.781,8.564-11.254l-11.293-83.225c-0.662-4.879-4.774-8.529-9.673-8.644l12.094-85.881
	c0.331-2.354,2.374-4.129,4.752-4.129h61.023c5.522,0,10-4.477,10-10V10C501.112,4.477,496.635,0,491.112,0z M108.284,76.317
	l-4.929-43.555l37.595,30.171L108.284,76.317z M162.104,54.266l-34.106-27.371l69.95,12.685L162.104,54.266z M84.063,40.146
	l4.985,44.053L45.675,101.97L84.063,40.146z M275.38,75.148c0-6.717,2.616-13.033,7.366-17.782c4.75-4.75,11.065-7.366,17.782-7.366
	c6.718,0,13.032,2.616,17.782,7.366s7.366,11.065,7.366,17.782s-2.616,13.033-7.366,17.783s-11.064,7.366-17.782,7.366
	c-6.673,0-12.947-2.584-17.687-7.275c-0.031-0.031-0.06-0.064-0.091-0.095s-0.064-0.06-0.096-0.091
	C277.964,88.097,275.38,81.822,275.38,75.148z M233.043,142.634c-4.75-4.75-7.366-11.065-7.366-17.782s2.616-13.033,7.366-17.783
	c9.772-9.771,25.651-9.803,35.465-0.096c0.033,0.033,0.063,0.068,0.096,0.101s0.067,0.063,0.101,0.096
	c9.706,9.814,9.676,25.693-0.096,35.465c-4.75,4.75-11.065,7.366-17.782,7.366C244.108,150,237.793,147.384,233.043,142.634z
	 M481.112,40h-51.023c-12.286,0-22.844,9.175-24.557,21.341L393.047,150H372.85l14.69-104.319C389.602,31.041,402.306,20,417.09,20
	h64.022V40z"/>
<path d="M128.875,340.197c-3.906-3.904-10.236-3.904-14.143,0l-20.695,20.695c-3.905,3.905-3.905,10.237,0,14.143
	c3.906,3.904,10.236,3.904,14.143,0l13.624-13.624l13.624,13.624c1.953,1.952,4.512,2.929,7.071,2.929s5.118-0.977,7.071-2.929
	c3.905-3.905,3.905-10.237,0-14.143L128.875,340.197z"/>
<path d="M231.488,375.035l13.624-13.624l13.623,13.624c3.906,3.904,10.236,3.905,14.143,0c3.905-3.905,3.905-10.237,0-14.143
	l-20.694-20.695c-1.875-1.875-4.419-2.929-7.071-2.929s-5.195,1.054-7.071,2.929l-20.695,20.695c-3.905,3.905-3.905,10.237,0,14.143
	c1.953,1.952,4.512,2.929,7.071,2.929S229.535,376.987,231.488,375.035z"/>
<path d="M375.491,340.197c-3.906-3.904-10.236-3.904-14.143,0l-20.695,20.695c-3.905,3.905-3.905,10.237,0,14.143
	c3.906,3.904,10.236,3.904,14.143,0l13.624-13.624l13.624,13.624c1.953,1.952,4.512,2.929,7.071,2.929s5.118-0.977,7.071-2.929
	c3.905-3.905,3.905-10.237,0-14.143L375.491,340.197z"/>
<path d="M149.57,221.429l-20.695-20.695c-3.906-3.905-10.236-3.905-14.143,0l-20.695,20.695c-3.905,3.905-3.905,10.237,0,14.143
	c3.906,3.905,10.236,3.905,14.143,0l13.624-13.625l13.624,13.625c1.953,1.953,4.512,2.929,7.071,2.929s5.118-0.976,7.071-2.929
	C153.476,231.666,153.476,225.334,149.57,221.429z"/>
<path d="M224.417,238.5c2.56,0,5.118-0.976,7.071-2.929l13.624-13.625l13.623,13.624c3.906,3.906,10.236,3.906,14.143,0
	c3.905-3.905,3.905-10.237,0-14.142l-20.694-20.695c-1.875-1.875-4.419-2.929-7.071-2.929s-5.195,1.054-7.071,2.929l-20.695,20.695
	c-3.905,3.905-3.905,10.237,0,14.143C219.299,237.524,221.858,238.5,224.417,238.5z"/>
<path d="M396.187,221.429l-20.695-20.695c-3.906-3.905-10.236-3.905-14.143,0l-20.695,20.695c-3.905,3.905-3.905,10.237,0,14.143
	c3.906,3.905,10.236,3.905,14.143,0l13.624-13.625l13.624,13.625c1.953,1.953,4.512,2.929,7.071,2.929s5.118-0.976,7.071-2.929
	C400.092,231.666,400.092,225.334,396.187,221.429z"/>
<path d="M158.907,444.767c3.906,3.904,10.236,3.904,14.143,0l13.624-13.624l13.624,13.624c1.953,1.952,4.512,2.929,7.071,2.929
	s5.118-0.977,7.071-2.929c3.905-3.905,3.905-10.237,0-14.143l-20.695-20.695c-3.906-3.904-10.236-3.904-14.143,0l-20.695,20.695
	C155.002,434.529,155.002,440.861,158.907,444.767z"/>
<path d="M289.926,444.767l13.624-13.624l13.624,13.624c1.953,1.952,4.512,2.929,7.071,2.929s5.118-0.977,7.071-2.929
	c3.905-3.905,3.905-10.237,0-14.143l-20.695-20.695c-3.906-3.904-10.236-3.904-14.143,0l-20.695,20.695
	c-3.905,3.905-3.905,10.237,0,14.143C279.69,448.671,286.02,448.671,289.926,444.767z"/>
<path d="M179.603,270.465l-20.695,20.695c-3.905,3.905-3.905,10.237,0,14.143c3.906,3.904,10.236,3.904,14.143,0l13.624-13.624
	l13.624,13.624c1.953,1.952,4.512,2.929,7.071,2.929s5.118-0.977,7.071-2.929c3.905-3.905,3.905-10.237,0-14.143l-20.695-20.695
	C189.839,266.561,183.509,266.561,179.603,270.465z"/>
<path d="M331.316,291.16l-20.695-20.695c-3.906-3.904-10.236-3.904-14.143,0l-20.695,20.695c-3.905,3.905-3.905,10.237,0,14.143
	c3.906,3.904,10.236,3.904,14.143,0l13.624-13.624l13.624,13.624c1.953,1.952,4.512,2.929,7.071,2.929s5.118-0.977,7.071-2.929
	C335.222,301.397,335.222,295.065,331.316,291.16z"/>
<g>
</g>
<g>
</g>
<g>
</g>
<g>
</g>
<g>
</g>
<g>
</g>
<g>
</g>
<g>
</g>
<g>
</g>
<g>
</g>
<g>
</g>
<g>
</g>
<g>
</g>
<g>
</g>
<g>
</g>
</svg>
